<svg class="max-h-24px max-h-lg-32px hide-on-mobile" width="151" height="32" viewBox="0 0 151 32" fill="none" xmlns="http://www.w3.org/2000/svg">
    <path d="M43.0102 21.9204L41.7334 18.908H33.5074L32.2856 21.9204H27.963L34.8207 5.44012H40.3291L47.5882 21.9204H43.0102ZM40.1649 15.1864L37.5387 9.00636L35.0218 15.1864H40.1649Z" fill="black"></path>
    <path d="M48.1525 10.0032H52.2199V11.7088C53.4727 10.3798 55.1321 9.71539 57.1993 9.71539H57.528C58.61 9.71539 59.5399 9.87011 60.3183 10.1801C61.1085 10.4904 61.7227 10.9263 62.1602 11.4873C62.6099 12.0485 62.9385 12.676 63.1451 13.3701C63.3521 14.0642 63.4554 14.8395 63.4554 15.6957V16.117C63.4554 16.9439 63.3458 17.7042 63.1271 18.3985C62.9202 19.0923 62.5859 19.7354 62.124 20.326C61.6737 20.9167 61.0476 21.3814 60.2453 21.7214C59.4429 22.0463 58.4944 22.2088 57.3996 22.2088H57.1082C55.8558 22.2088 54.7978 21.9798 53.9345 21.5219C53.0832 21.0642 52.5118 20.636 52.2199 20.237V26.0854H48.1525V10.0032ZM52.2199 15.8732V15.9619C52.2199 16.7888 52.5364 17.5126 53.1684 18.1329C53.8006 18.7526 54.6945 19.0626 55.8495 19.0626H55.941C57.1326 19.0626 57.9895 18.7604 58.5122 18.1548C59.0356 17.5495 59.2968 16.8183 59.2968 15.9619V15.8732C59.2968 14.9873 59.0356 14.256 58.5122 13.6804C58.0016 13.0895 57.1447 12.7945 55.941 12.7945H55.8495C54.6583 12.7945 53.7523 13.097 53.1318 13.7026C52.5239 14.3079 52.2199 15.0314 52.2199 15.8732Z" fill="black"></path>
    <path d="M64.7175 10.0032H68.7846V11.7088C70.0373 10.3798 71.6969 9.71539 73.764 9.71539H74.0926C75.1749 9.71539 76.1045 9.87011 76.8833 10.1801C77.6737 10.4904 78.288 10.9263 78.7255 11.4873C79.1749 12.0485 79.5032 12.676 79.7101 13.3701C79.9166 14.0642 80.0205 14.8395 80.0205 15.6957V16.117C80.0205 16.9439 79.911 17.7042 79.6924 18.3985C79.4854 19.0923 79.1505 19.7354 78.6886 20.326C78.2386 20.9167 77.6129 21.3814 76.8099 21.7214C76.0072 22.0463 75.0591 22.2088 73.9646 22.2088H73.6728C72.4204 22.2088 71.3627 21.9798 70.4992 21.5219C69.6481 21.0642 69.0767 20.636 68.7846 20.237V26.0854H64.7175V10.0032ZM68.7846 15.8732V15.9619C68.7846 16.7888 69.101 17.5126 69.7333 18.1329C70.3653 18.7526 71.2591 19.0626 72.4145 19.0626H72.5056C73.6975 19.0626 74.5544 18.7604 75.0772 18.1548C75.6003 17.5495 75.8617 16.8183 75.8617 15.9619V15.8732C75.8617 14.9873 75.6003 14.256 75.0772 13.6804C74.5666 13.0895 73.7096 12.7945 72.5056 12.7945H72.4145C71.2229 12.7945 70.3172 13.097 69.6968 13.7026C69.0892 14.3079 68.7846 15.0314 68.7846 15.8732Z" fill="black"></path>
    <path d="M82.0074 26.0854V22.5407H84.306C84.6224 22.5407 84.7798 22.4151 84.7798 22.1642C84.7798 22.0314 84.6279 21.6104 84.3243 20.9017L79.6367 10.0032H84.0144L87.1694 18.0667L90.2333 10.0032H94.3191L89.1755 22.7183C88.689 23.8995 88.1784 24.7557 87.644 25.2876C87.1087 25.8189 86.4152 26.0854 85.5643 26.0854H82.0074Z" fill="black"></path>
    <path d="M95.162 21.9204V5.44012H99.4116V11.4432H108.532V5.44012H112.781V21.9204H108.532V15.4304H99.4116V21.9204H95.162Z" fill="black"></path>
    <path d="M118.747 10.0032V21.9204H114.68V10.0032H118.747ZM118.747 5.44012V8.8514H114.68V5.44012H118.747Z" fill="black"></path>
    <path d="M128.584 26.2401H127.289C126.122 26.2401 125.101 26.1142 124.225 25.8636C123.362 25.6276 122.706 25.3464 122.256 25.022C121.818 24.697 121.465 24.3126 121.197 23.8698C120.93 23.4417 120.766 23.087 120.705 22.8064C120.644 22.526 120.614 22.2526 120.614 21.987V21.9204H124.717C124.864 22.6588 125.909 23.0283 127.855 23.0283H127.91C130.244 23.0283 131.412 21.8839 131.412 19.5948C130.305 20.7908 128.712 21.3892 126.633 21.3892H126.414C124.25 21.3892 122.639 20.8573 121.581 19.7939C120.535 18.7308 120.012 17.3651 120.012 15.6957V15.2529C120.012 13.658 120.486 12.3364 121.435 11.2883C122.383 10.2395 123.873 9.71539 125.903 9.71539H126.286C128.584 9.71539 130.287 10.3426 131.393 11.5983V10.0032H135.479V19.7495C135.479 20.2517 135.436 20.7542 135.351 21.2557C135.266 21.758 135.072 22.3188 134.767 22.9392C134.476 23.5745 134.093 24.1214 133.618 24.5782C133.144 25.051 132.469 25.4423 131.594 25.7526C130.73 26.0776 129.728 26.2401 128.584 26.2401ZM127.618 12.8167H127.508C126.305 12.8167 125.441 13.0673 124.919 13.5698C124.407 14.0717 124.153 14.7064 124.153 15.4745V15.5854C124.153 16.3532 124.42 17.0104 124.955 17.5564C125.502 18.0885 126.353 18.3542 127.508 18.3542H127.618C128.822 18.3542 129.74 18.0885 130.371 17.5564C131.004 17.0104 131.321 16.3608 131.321 15.6076V15.5188C131.321 14.7511 131.004 14.1085 130.371 13.5917C129.74 13.0748 128.822 12.8167 127.618 12.8167Z" fill="black"></path>
    <path d="M137.193 21.9204V5.44012H141.26V11.9967C142.501 10.4904 144.112 9.73732 146.094 9.73732H146.222C147.802 9.73732 148.994 10.1951 149.796 11.1108C150.599 12.0117 151 13.1045 151 14.3892V21.9204H146.896V16.0283C146.896 15.0832 146.678 14.352 146.24 13.8354C145.802 13.3185 145.145 13.0598 144.27 13.0598C143.358 13.0598 142.628 13.3551 142.081 13.9464C141.534 14.537 141.26 15.3192 141.26 16.2939V21.9204H137.193Z" fill="black"></path>
    <path d="M2.12406 0.000123978H9.1657C10.3391 0.000123978 11.2901 0.952603 11.2901 2.127V9.17796C11.2901 10.3529 10.3391 11.3051 9.1657 11.3051H2.12406C0.951244 11.3051 0 10.3529 0 9.17796V2.127C0 0.952603 0.951244 0.000123978 2.12406 0.000123978Z" fill="#B146AA"></path>
    <path d="M2.12406 13.2351H9.1657C10.3391 13.2351 11.2901 14.1873 11.2901 15.3619V22.4126C11.2901 23.5876 10.3391 24.5401 9.1657 24.5401H2.12406C0.951244 24.5401 0 23.5876 0 22.4126V15.3619C0 14.1873 0.951244 13.2351 2.12406 13.2351Z" fill="#B146AA"></path>
    <path d="M15.3417 0.000123978H22.383C23.5565 0.000123978 24.5077 0.952603 24.5077 2.127V9.17796C24.5077 10.3529 23.5565 11.3051 22.383 11.3051H15.3417C14.1686 11.3051 13.2173 10.3529 13.2173 9.17796V2.127C13.2173 0.952603 14.1686 0.000123978 15.3417 0.000123978Z" fill="#B146AA"></path>
    <mask id="mask0_2732_8531" style="mask-type:luminance" maskUnits="userSpaceOnUse" x="13" y="13" width="12" height="19">
        <path d="M13.6879 31.172C13.6879 31.7932 14.3461 32.1923 14.896 31.9048L19.1775 29.6698C22.4532 27.9595 24.5077 24.5673 24.5077 20.8683V14.8891C24.5077 13.9754 23.7674 13.2351 22.8551 13.2351H14.8695C13.9569 13.2351 13.2173 13.9754 13.2173 14.8891V22.7417C13.2173 23.6448 13.9482 24.376 14.8501 24.376C16.2686 24.376 17.012 26.0635 16.0561 27.1126L14.1195 29.2376C13.8418 29.5423 13.6879 29.9401 13.6879 30.3526V31.172Z" fill="white"></path>
    </mask>
    <g mask="url(#mask0_2732_8531)">
        <path d="M13.6879 31.172C13.6879 31.7932 14.3461 32.1923 14.896 31.9048L19.1775 29.6698C22.4532 27.9595 24.5077 24.5673 24.5077 20.8683V14.8891C24.5077 13.9754 23.7674 13.2351 22.8551 13.2351H14.8695C13.9569 13.2351 13.2173 13.9754 13.2173 14.8891V22.7417C13.2173 23.6448 13.9482 24.376 14.8501 24.376C16.2686 24.376 17.012 26.0635 16.0561 27.1126L14.1195 29.2376C13.8418 29.5423 13.6879 29.9401 13.6879 30.3526V31.172Z" fill="url(#paint0_linear_2732_8531)"></path>
    </g>
    <defs>
        <linearGradient id="paint0_linear_2732_8531" x1="13.329" y1="14.1432" x2="24.935" y2="31.7291" gradientUnits="userSpaceOnUse">
            <stop stop-color="#B346A9"></stop>
            <stop offset="1" stop-color="#4E53AD"></stop>
        </linearGradient>
    </defs>
</svg>